# xmcd CD database file
#
# Track frame offsets:
#	182
#	11360
#	19967
#	33050
#	47782
#	58837
#	70967
#	83877
#	97420
#	111645
#	124397
#
# Disc length: 1826 seconds
#
# Revision: 1
# Processed by: cddbd v1.5.2PL0 Copyright (c) Steve Scherf et al.
# Submitted via: jetAudio 7
#
DISCID=9d07200b
DTITLE=The Statler Brothers - The Country Store Collection
DYEAR=1900
DGENRE=Country
TTITLE0=Bed Of Roses
TTITLE1=Whatever Happened To Randolph Scott
TTITLE2=Do You Remember These
TTITLE3=Carry Me Back
TTITLE4=Flowers On The Wall
TTITLE5=The Class Of '57
TTITLE6=I'll Go To My Grave Loving You
TTITLE7=Pictures
TTITLE8=Thank You World
TTITLE9=New York City
TTITLE10=Susan When She Tried
EXTD=
EXTT0=
EXTT1=
EXTT2=
EXTT3=
EXTT4=
EXTT5=
EXTT6=
EXTT7=
EXTT8=
EXTT9=
EXTT10=
PLAYORDER=
